<svg width="60.000000" height="60.000000" viewBox="0 0 60 60" fill="none" xmlns="http://www.w3.org/2000/svg" xmlns:xlink="http://www.w3.org/1999/xlink">
	<desc>
			Created with Pixso.
	</desc>
	<defs/>
	<path id="Vector" d="M35.62 11.25L13.12 11.25C12.09 11.25 11.25 12.09 11.25 13.12C11.25 14.15 12.09 15 13.12 15L35.62 15C36.66 15 37.5 14.15 37.5 13.12C37.5 12.09 36.66 11.25 35.62 11.25Z" fill="#2352DE" fill-opacity="1.000000" fill-rule="nonzero"/>
	<path id="Vector" d="M28.12 18.75L13.12 18.75C12.09 18.75 11.25 19.59 11.25 20.62C11.25 21.65 12.09 22.5 13.12 22.5L28.12 22.5C29.16 22.5 30 21.65 30 20.62C30 19.59 29.16 18.75 28.12 18.75Z" fill="#2352DE" fill-opacity="1.000000" fill-rule="nonzero"/>
	<path id="Vector" d="M41.25 0L7.5 0C3.36 0 0 3.36 0 7.5L0 45C0 45.72 0.41 46.39 1.08 46.69C1.33 46.81 1.6 46.87 1.87 46.87C2.3 46.87 2.73 46.72 3.07 46.43L13.8 37.5L41.25 37.5C45.38 37.5 48.75 34.13 48.75 30L48.75 7.5C48.75 3.36 45.38 0 41.25 0ZM45 30C45 32.06 43.32 33.75 41.25 33.75L13.12 33.75C12.68 33.75 12.26 33.9 11.92 34.18L3.75 40.99L3.75 7.5C3.75 5.43 5.43 3.75 7.5 3.75L41.25 3.75C43.32 3.75 45 5.43 45 7.5L45 30Z" fill="#2352DE" fill-opacity="1.000000" fill-rule="nonzero"/>
	<path id="Vector" d="M52.5 15C51.46 15 50.62 15.84 50.62 16.87C50.62 17.9 51.46 18.75 52.5 18.75C54.57 18.75 56.25 20.43 56.25 22.5L56.25 54.22L49.92 49.15C49.59 48.89 49.17 48.75 48.75 48.75L22.5 48.75C20.43 48.75 18.75 47.06 18.75 45L18.75 43.12C18.75 42.09 17.91 41.25 16.87 41.25C15.84 41.25 15 42.09 15 43.12L15 45C15 49.13 18.36 52.5 22.5 52.5L48.09 52.5L56.95 59.59C57.29 59.86 57.7 60 58.12 60C58.39 60 58.67 59.93 58.93 59.81C59.58 59.5 60 58.84 60 58.12L60 22.5C60 18.36 56.63 15 52.5 15Z" fill="#2352DE" fill-opacity="1.000000" fill-rule="nonzero"/>
</svg>
