<svg width="60.000000" height="60.000000" viewBox="0 0 60 60" fill="none" xmlns="http://www.w3.org/2000/svg" xmlns:xlink="http://www.w3.org/1999/xlink">
	<desc>
			Created with Pixso.
	</desc>
	<defs/>
	<path d="M37.24 0.8L35.25 0.06C35 -0.06 34.74 -0.02 34.5 0.17C34.25 0.36 34.09 0.64 34 1.02L22.04 57.44C21.96 57.82 21.99 58.17 22.12 58.51C22.26 58.84 22.47 59.07 22.75 59.18L24.74 59.93C24.99 60.05 25.24 60.01 25.49 59.82C25.74 59.63 25.9 59.35 25.99 58.97L37.95 2.55C38.03 2.17 38 1.82 37.87 1.48C37.73 1.15 37.52 0.92 37.24 0.8Z" fill="#2352DE" fill-opacity="1.000000" fill-rule="nonzero"/>
	<path d="M19 10.74C19 10.35 18.89 10 18.67 9.7L17.04 7.45C16.82 7.15 16.57 7 16.29 7C16 7 15.75 7.15 15.53 7.45L0.32 28.46C0.1 28.76 0 29.1 0 29.5C0 29.89 0.1 30.23 0.32 30.53L15.53 51.54C15.75 51.85 16 52 16.29 52C16.57 52 16.82 51.84 17.04 51.54L18.67 49.29C18.89 48.99 18.99 48.64 18.99 48.25C18.99 47.86 18.89 47.52 18.67 47.22L5.84 29.5L18.67 11.78C18.89 11.47 19 11.13 19 10.74Z" fill="#2352DE" fill-opacity="1.000000" fill-rule="nonzero"/>
	<path d="M59.67 28.46L44.45 7.45C44.24 7.15 43.99 7 43.7 7C43.42 7 43.17 7.15 42.95 7.45L41.32 9.7C41.1 10 41 10.35 41 10.74C41 11.13 41.1 11.47 41.32 11.78L54.15 29.5L41.32 47.22C41.1 47.52 41 47.86 41 48.25C41 48.64 41.1 48.99 41.32 49.29L42.95 51.54C43.17 51.85 43.42 52 43.7 52C43.99 52 44.24 51.84 44.45 51.54L59.67 30.53C59.89 30.23 60 29.89 60 29.5C60 29.1 59.89 28.76 59.67 28.46Z" fill="#2352DE" fill-opacity="1.000000" fill-rule="nonzero"/>
</svg>
