<svg width="97.148621" height="80.000000" viewBox="0 0 97.1486 80" fill="none" xmlns="http://www.w3.org/2000/svg" xmlns:xlink="http://www.w3.org/1999/xlink">
	<desc>
			Created with Pixso.
	</desc>
	<defs/>
	<path id="Vector" d="M89.56 11.5L69.08 11.5L69.08 7.83C69.08 3.51 65.57 0 61.24 0L35.9 0C31.57 0 28.06 3.51 28.06 7.83L28.06 11.5L7.58 11.5C3.4 11.5 0 14.9 0 19.08L0 72.41C0 76.59 3.4 80 7.58 80L89.56 80C93.74 80 97.14 76.59 97.14 72.41L97.14 19.08C97.14 14.9 93.74 11.5 89.56 11.5ZM34.68 7.83C34.68 7.16 35.23 6.62 35.9 6.62L61.24 6.62C61.91 6.62 62.46 7.16 62.46 7.83L62.46 11.5L34.68 11.5L34.68 7.83ZM7.58 18.12L89.56 18.12C90.09 18.12 90.52 18.55 90.52 19.08L90.52 36.46C80.26 40.26 64.78 42.51 48.54 42.51C32.34 42.51 16.88 40.27 6.62 36.48L6.62 19.08C6.62 18.55 7.05 18.12 7.58 18.12ZM89.56 73.37L7.58 73.37C7.05 73.37 6.62 72.94 6.62 72.41L6.62 43.49C16.01 46.59 28.36 48.53 41.82 49.01C41.82 49.05 41.81 49.09 41.81 49.13L41.81 50.59C41.81 53.33 44.04 55.55 46.78 55.55L50.36 55.55C53.1 55.55 55.33 53.33 55.33 50.59L55.33 49.13C55.33 49.09 55.32 49.05 55.32 49.01C68.79 48.52 81.14 46.58 90.52 43.48L90.52 72.41C90.52 72.94 90.09 73.37 89.56 73.37Z" fill="#2352DE" fill-opacity="1.000000" fill-rule="nonzero"/>
</svg>
