<svg width="91.838593" height="80.000000" viewBox="0 0 91.8386 80" fill="none" xmlns="http://www.w3.org/2000/svg" xmlns:xlink="http://www.w3.org/1999/xlink">
	<desc>
			Created with Pixso.
	</desc>
	<defs/>
	<path id="Vector" d="M45.91 31.21C54.52 31.21 61.52 24.21 61.52 15.6C61.52 7 54.52 0 45.91 0C37.31 0 30.31 7 30.31 15.6C30.31 24.21 37.31 31.21 45.91 31.21ZM45.91 5.38C51.55 5.38 56.14 9.96 56.14 15.6C56.14 21.24 51.55 25.82 45.91 25.82C40.28 25.82 35.69 21.24 35.69 15.6C35.69 9.96 40.28 5.38 45.91 5.38Z" fill="#2352DE" fill-opacity="1.000000" fill-rule="nonzero"/>
	<path id="Vector" d="M77.48 31.21C82.92 31.21 87.35 26.78 87.35 21.34C87.35 15.9 82.92 11.47 77.48 11.47C72.04 11.47 67.62 15.9 67.62 21.34C67.62 26.78 72.04 31.21 77.48 31.21ZM77.48 16.86C79.96 16.86 81.97 18.87 81.97 21.34C81.97 23.81 79.96 25.82 77.48 25.82C75.01 25.82 73 23.81 73 21.34C73 18.87 75.01 16.86 77.48 16.86Z" fill="#2352DE" fill-opacity="1.000000" fill-rule="nonzero"/>
	<path id="Vector" d="M79.65 37.3L75.49 37.3C70.59 37.3 66.36 40.2 64.43 44.36C60.46 40.03 54.75 37.3 48.42 37.3L43.41 37.3C37.08 37.3 31.37 40.03 27.4 44.36C25.47 40.2 21.24 37.3 16.34 37.3L12.17 37.3C5.46 37.3 0 42.74 0 49.41L0 69C0 71.9 2.36 74.26 5.27 74.26L21.72 74.26C22 77.47 24.7 80 27.98 80L63.85 80C67.13 80 69.83 77.47 70.1 74.26L86.37 74.26C89.38 74.26 91.83 71.81 91.83 68.81L91.83 49.41C91.83 42.74 86.37 37.3 79.65 37.3ZM5.38 49.41C5.38 45.7 8.43 42.69 12.17 42.69L16.34 42.69C20.08 42.69 23.13 45.7 23.13 49.41L23.13 51.25C21.32 55.96 21.7 58.79 21.7 68.87L5.38 68.87L5.38 49.41ZM64.75 73.71C64.75 74.21 64.34 74.61 63.85 74.61L27.98 74.61C27.48 74.61 27.08 74.21 27.08 73.71L27.08 59.01C27.08 50.01 34.4 42.69 43.41 42.69L48.42 42.69C57.42 42.69 64.75 50.01 64.75 59.01L64.75 73.71ZM86.45 68.81C86.45 68.91 87.46 68.87 70.13 68.87C70.13 58.71 70.5 55.96 68.69 51.25L68.69 49.41C68.69 45.7 71.74 42.69 75.49 42.69L79.65 42.69C83.4 42.69 86.45 45.7 86.45 49.41L86.45 68.81Z" fill="#2352DE" fill-opacity="1.000000" fill-rule="nonzero"/>
	<path id="Vector" d="M14.34 31.21C19.78 31.21 24.21 26.78 24.21 21.34C24.21 15.9 19.78 11.47 14.34 11.47C8.9 11.47 4.48 15.9 4.48 21.34C4.48 26.78 8.9 31.21 14.34 31.21ZM14.34 16.86C16.82 16.86 18.83 18.87 18.83 21.34C18.83 23.81 16.82 25.82 14.34 25.82C11.87 25.82 9.86 23.81 9.86 21.34C9.86 18.87 11.87 16.86 14.34 16.86Z" fill="#2352DE" fill-opacity="1.000000" fill-rule="nonzero"/>
</svg>
