<svg width="79.636414" height="80.000000" viewBox="0 0 79.6364 80" fill="none" xmlns="http://www.w3.org/2000/svg" xmlns:xlink="http://www.w3.org/1999/xlink">
	<desc>
			Created with Pixso.
	</desc>
	<defs/>
	<path id="Vector" d="M48.86 15.41C51.94 12.93 52.64 10.27 52.68 8.48C52.78 4.13 49.34 0.94 48.95 0.59C47.98 -0.27 46.49 -0.19 45.62 0.79C44.76 1.76 44.84 3.25 45.82 4.11C45.84 4.13 48.02 6.17 47.97 8.37C47.94 9.54 47.26 10.65 45.9 11.75C42.83 14.23 42.13 16.89 42.09 18.68C41.98 23.03 45.42 26.22 45.82 26.57C46.27 26.97 46.83 27.17 47.39 27.17C48.04 27.17 48.68 26.9 49.15 26.38C50.01 25.41 49.93 23.92 48.96 23.06C48.34 22.49 46.75 20.63 46.8 18.77C46.83 17.61 47.51 16.51 48.86 15.41Z" fill="#2352DE" fill-opacity="1.000000" fill-rule="nonzero"/>
	<path id="Vector" d="M33.91 15.41C36.99 12.93 37.68 10.27 37.72 8.48C37.83 4.13 34.39 0.94 33.99 0.59C33.02 -0.27 31.53 -0.19 30.67 0.79C29.8 1.76 29.89 3.25 30.86 4.11C30.88 4.13 33.06 6.17 33.01 8.37C32.98 9.54 32.31 10.65 30.95 11.75C27.87 14.23 27.18 16.89 27.13 18.68C27.03 23.03 30.47 26.22 30.86 26.57C31.31 26.97 31.87 27.17 32.43 27.17C33.08 27.17 33.73 26.9 34.19 26.38C35.06 25.41 34.98 23.92 34 23.06C33.39 22.49 31.79 20.63 31.85 18.77C31.88 17.61 32.56 16.51 33.91 15.41Z" fill="#2352DE" fill-opacity="1.000000" fill-rule="nonzero"/>
	<path id="Vector" d="M67.65 38.46L64.86 38.46L64.86 36.73C64.86 35.43 63.81 34.37 62.5 34.37L2.35 34.37C1.05 34.37 0 35.43 0 36.73L0 49.17C0 60.16 6.08 69.82 15.21 75.28L2.35 75.28C1.05 75.28 0 76.34 0 77.64C0 78.94 1.05 80 2.35 80L62.5 80C63.81 80 64.86 78.94 64.86 77.64C64.86 76.34 63.81 75.28 62.5 75.28L49.64 75.28C54.84 72.18 59.05 67.71 61.71 62.42L67.65 62.42C74.26 62.42 79.63 57.04 79.63 50.44C79.63 43.83 74.26 38.46 67.65 38.46ZM60.15 49.17C60.15 63.57 47.71 75.28 32.43 75.28C17.14 75.28 4.71 63.57 4.71 49.17L4.71 39.08L60.15 39.08L60.15 49.17L60.15 49.17ZM67.65 57.7L63.59 57.7C64.42 54.99 64.86 52.13 64.86 49.17L64.86 43.17L67.65 43.17C71.66 43.17 74.92 46.43 74.92 50.44C74.92 54.44 71.66 57.7 67.65 57.7Z" fill="#2352DE" fill-opacity="1.000000" fill-rule="nonzero"/>
	<path id="Vector" d="M18.96 15.41C22.03 12.93 22.73 10.27 22.77 8.48C22.87 4.13 19.43 0.94 19.04 0.59C18.07 -0.27 16.58 -0.19 15.71 0.79C14.85 1.76 14.94 3.25 15.91 4.11C15.93 4.13 18.11 6.17 18.06 8.37C18.03 9.54 17.35 10.65 15.99 11.75C12.92 14.23 12.22 16.89 12.18 18.68C12.08 23.03 15.52 26.22 15.91 26.57C16.36 26.97 16.92 27.16 17.47 27.16C18.12 27.16 18.77 26.9 19.24 26.37C20.1 25.4 20.01 23.91 19.04 23.05C19.02 23.03 16.84 20.99 16.89 18.79C16.92 17.62 17.59 16.51 18.96 15.41Z" fill="#2352DE" fill-opacity="1.000000" fill-rule="nonzero"/>
</svg>
