<svg width="88.313721" height="88.000000" viewBox="0 0 88.3137 88" fill="none" xmlns="http://www.w3.org/2000/svg" xmlns:xlink="http://www.w3.org/1999/xlink">
	<desc>
			Created with Pixso.
	</desc>
	<defs>
		<filter id="filter_20946_166_dd" x="0.000000" y="0.000000" width="88.313721" height="88.000000" filterUnits="userSpaceOnUse" color-interpolation-filters="sRGB">
			<feFlood flood-opacity="0" result="BackgroundImageFix"/>
			<feColorMatrix in="SourceAlpha" type="matrix" values="0 0 0 0 0 0 0 0 0 0 0 0 0 0 0 0 0 0 127 0" result="hardAlpha"/>
			<feOffset dx="0" dy="4"/>
			<feGaussianBlur stdDeviation="1.33333"/>
			<feComposite in2="hardAlpha" operator="out" k2="-1" k3="1"/>
			<feColorMatrix type="matrix" values="0 0 0 0 0 0 0 0 0 0 0 0 0 0 0 0 0 0 0.25 0"/>
			<feBlend mode="normal" in2="BackgroundImageFix" result="effect_dropShadow_1"/>
			<feBlend mode="normal" in="SourceGraphic" in2="effect_dropShadow_1" result="shape"/>
		</filter>
	</defs>
	<g filter="url(#filter_20946_166_dd)">
		<path id="Vector" d="M75.68 0L31.76 0C27 0 23.13 3.87 23.13 8.62L23.13 28.23L12.62 28.23C7.87 28.23 4 32.1 4 36.86L4 61.96C4 66.71 7.87 70.58 12.62 70.58L27.05 70.58L32.63 78.95C33.06 79.6 33.8 80 34.58 80C35.37 80 36.1 79.6 36.54 78.95L42.12 70.58L56.54 70.58C61.3 70.58 65.17 66.71 65.17 61.96L65.17 42.35L75.68 42.35C80.44 42.35 84.31 38.48 84.31 33.72L84.31 8.62C84.31 3.87 80.44 0 75.68 0ZM60.47 61.96C60.47 64.12 58.71 65.88 56.54 65.88L40.86 65.88C40.07 65.88 39.34 66.27 38.9 66.93L34.58 73.4L30.27 66.93C29.83 66.27 29.1 65.88 28.31 65.88L12.62 65.88C10.46 65.88 8.7 64.12 8.7 61.96L8.7 36.86C8.7 34.7 10.46 32.94 12.62 32.94L23.13 32.94L23.13 33.72C23.13 35.13 23.48 36.46 24.08 37.64L15.76 37.64C14.46 37.64 13.41 38.7 13.41 40C13.41 41.29 14.46 42.35 15.76 42.35L46.19 42.35L49.32 47.05L15.76 47.05C14.46 47.05 13.41 48.11 13.41 49.41C13.41 50.71 14.46 51.76 15.76 51.76L53.72 51.76C54.51 51.76 55.24 51.37 55.68 50.71L60.47 43.53L60.47 61.96ZM79.6 33.72C79.6 35.88 77.84 37.64 75.68 37.64L60 37.64C59.21 37.64 58.47 38.04 58.04 38.69L53.72 45.16L49.4 38.69C48.97 38.04 48.23 37.64 47.45 37.64L31.76 37.64C29.6 37.64 27.84 35.88 27.84 33.72L27.84 8.62C27.84 6.46 29.6 4.7 31.76 4.7L75.68 4.7C77.84 4.7 79.6 6.46 79.6 8.62L79.6 33.72Z" fill="#2352DE" fill-opacity="1.000000" fill-rule="nonzero"/>
		<path id="Vector" d="M53.41 56.47L15.76 56.47C14.46 56.47 13.41 57.52 13.41 58.82C13.41 60.12 14.46 61.17 15.76 61.17L53.41 61.17C54.71 61.17 55.76 60.12 55.76 58.82C55.76 57.52 54.71 56.47 53.41 56.47Z" fill="#2352DE" fill-opacity="1.000000" fill-rule="nonzero"/>
		<path id="Vector" d="M65.04 16.38L58.68 15.45L55.83 9.69C55.43 8.88 54.62 8.38 53.72 8.38C52.82 8.38 52.01 8.88 51.61 9.69L48.76 15.45L42.4 16.38C41.52 16.51 40.78 17.13 40.5 17.98C40.23 18.83 40.46 19.77 41.1 20.39L45.7 24.88L44.61 31.22C44.46 32.1 44.83 32.99 45.55 33.52C46.28 34.04 47.24 34.11 48.03 33.7L53.72 30.71L59.41 33.7C59.76 33.88 60.13 33.97 60.51 33.97C60.99 33.97 61.48 33.82 61.89 33.52C62.61 32.99 62.98 32.1 62.83 31.22L61.74 24.88L66.34 20.39C66.98 19.77 67.22 18.83 66.94 17.98C66.66 17.13 65.93 16.51 65.04 16.38ZM57.57 22.37C57.01 22.91 56.76 23.69 56.89 24.46L57.38 27.31L54.82 25.96C54.47 25.78 54.1 25.69 53.72 25.69C53.34 25.69 52.97 25.78 52.63 25.96L50.06 27.31L50.55 24.46C50.68 23.69 50.43 22.91 49.87 22.37L47.8 20.35L50.67 19.93C51.43 19.82 52.1 19.34 52.44 18.65L53.72 16.05L55 18.65C55.35 19.34 56.01 19.82 56.78 19.93L59.65 20.35L57.57 22.37Z" fill="#2352DE" fill-opacity="1.000000" fill-rule="nonzero"/>
	</g>
</svg>
