<svg width="44.000000" height="44.000000" viewBox="0 0 44 44" fill="none" xmlns="http://www.w3.org/2000/svg" xmlns:xlink="http://www.w3.org/1999/xlink">
	<desc>
			Created with Pixso.
	</desc>
	<defs>
		<clipPath id="clip20948_45">
			<rect id="facebook (1) 1" width="44.000000" height="44.000000" fill="white" fill-opacity="0"/>
		</clipPath>
	</defs>
	<rect id="facebook (1) 1" width="44.000000" height="44.000000" fill="#FFFFFF" fill-opacity="0"/>
	<g clip-path="url(#clip20948_45)">
		<path id="Vector" d="M38.84 0L5.15 0C2.31 0 0 2.31 0 5.15L0 38.84C0 41.68 2.31 44 5.15 44L38.84 44C41.68 44 44 41.68 44 38.84L44 5.15C44 2.31 41.68 0 38.84 0ZM40.56 38.84C40.56 39.79 39.79 40.56 38.84 40.56L29.04 40.56L29.04 26.55L34.35 26.55L35.23 21.22L29.04 21.22L29.04 17.53C29.04 16.07 30.16 14.95 31.62 14.95L35.14 14.95L35.14 9.62L31.62 9.62C27.24 9.62 23.72 13.16 23.72 17.54L23.72 21.22L18.56 21.22L18.56 26.55L23.72 26.55L23.72 40.56L5.15 40.56C4.2 40.56 3.43 39.79 3.43 38.84L3.43 5.15C3.43 4.2 4.2 3.43 5.15 3.43L38.84 3.43C39.79 3.43 40.56 4.2 40.56 5.15L40.56 38.84Z" fill="#2352DE" fill-opacity="1.000000" fill-rule="nonzero"/>
	</g>
</svg>
