<svg width="44.000000" height="44.000000" viewBox="0 0 44 44" fill="none" xmlns="http://www.w3.org/2000/svg" xmlns:xlink="http://www.w3.org/1999/xlink">
	<desc>
			Created with Pixso.
	</desc>
	<defs>
		<clipPath id="clip20948_16">
			<rect id="instagram" width="44.000000" height="44.000000" fill="white" fill-opacity="0"/>
		</clipPath>
	</defs>
	<rect id="instagram" width="44.000000" height="44.000000" fill="#FFFFFF" fill-opacity="0"/>
	<g clip-path="url(#clip20948_16)">
		<path id="Vector" d="M31.21 0L12.78 0C5.73 0 0 5.73 0 12.78L0 31.21C0 38.26 5.73 44 12.78 44L31.21 44C38.26 44 44 38.26 44 31.21L44 12.78C44 5.73 38.26 0 31.21 0ZM40.56 31.21C40.56 36.37 36.37 40.56 31.21 40.56L12.78 40.56C7.62 40.56 3.43 36.37 3.43 31.21L3.43 12.78C3.43 7.62 7.62 3.43 12.78 3.43L31.21 3.43C36.37 3.43 40.56 7.62 40.56 12.78L40.56 31.21Z" fill="#2352DE" fill-opacity="1.000000" fill-rule="nonzero"/>
		<path id="Vector" d="M22 10.14C15.46 10.14 10.14 15.46 10.14 22C10.14 28.53 15.46 33.85 22 33.85C28.53 33.85 33.85 28.53 33.85 22C33.85 15.46 28.53 10.14 22 10.14ZM22 30.42C17.35 30.42 13.57 26.64 13.57 22C13.57 17.35 17.35 13.57 22 13.57C26.64 13.57 30.42 17.35 30.42 22C30.42 26.64 26.64 30.42 22 30.42Z" fill="#2352DE" fill-opacity="1.000000" fill-rule="nonzero"/>
		<path id="Vector" d="M35.75 9.96C35.75 10.91 34.98 11.68 34.03 11.68C33.08 11.68 32.31 10.91 32.31 9.96C32.31 9.01 33.08 8.25 34.03 8.25C34.98 8.25 35.75 9.01 35.75 9.96Z" fill="#2352DE" fill-opacity="1.000000" fill-rule="evenodd"/>
	</g>
</svg>
