<svg width="44.000000" height="45.222168" viewBox="0 0 44 45.2222" fill="none" xmlns="http://www.w3.org/2000/svg" xmlns:xlink="http://www.w3.org/1999/xlink">
	<desc>
			Created with Pixso.
	</desc>
	<defs>
		<clipPath id="clip20948_41">
			<rect id="telegram" width="44.000000" height="45.222221" fill="white" fill-opacity="0"/>
		</clipPath>
	</defs>
	<rect id="telegram" width="44.000000" height="45.222221" fill="#FFFFFF" fill-opacity="0"/>
	<g clip-path="url(#clip20948_41)">
		<path id="Vector" d="M43.32 4.49C42.78 3.81 41.97 3.44 41.05 3.44C40.55 3.44 40.01 3.55 39.47 3.76L2.22 18.38C0.24 19.15 -0.02 20.31 0 20.94C0.01 21.56 0.34 22.71 2.36 23.37C2.37 23.37 2.38 23.38 2.4 23.38L10.12 25.65L14.3 37.93C14.87 39.61 16.15 40.65 17.64 40.65C18.58 40.65 19.5 40.24 20.31 39.48L25.09 34.95L32.02 40.69C32.02 40.69 32.02 40.69 32.02 40.69L32.09 40.75C32.09 40.75 32.1 40.76 32.1 40.76C32.87 41.38 33.71 41.7 34.54 41.7L34.54 41.7C36.14 41.7 37.42 40.48 37.79 38.59L43.89 7.62C44.14 6.38 43.93 5.26 43.32 4.49ZM12.71 25.22L27.61 17.39L18.33 27.53C18.18 27.7 18.07 27.9 18.02 28.12L16.23 35.57L12.71 25.22ZM18.56 37.53C18.5 37.59 18.44 37.64 18.37 37.69L20.03 30.77L23.06 33.27L18.56 37.53ZM41.37 7.09L35.27 38.06C35.21 38.36 35.02 39.05 34.54 39.05C34.3 39.05 34 38.92 33.69 38.67L25.84 32.17C25.84 32.17 25.84 32.17 25.83 32.17L21.16 28.3L34.58 13.65C35.01 13.18 35.05 12.46 34.67 11.94C34.3 11.43 33.62 11.27 33.06 11.56L10.98 23.15L3.15 20.85L40.39 6.24C40.7 6.12 40.92 6.09 41.05 6.09C41.13 6.09 41.27 6.1 41.32 6.16C41.39 6.25 41.48 6.54 41.37 7.09Z" fill="#2352DE" fill-opacity="1.000000" fill-rule="nonzero"/>
	</g>
</svg>
